<svg width="374" height="343" viewBox="0 0 374 343" fill="none" xmlns="http://www.w3.org/2000/svg">
<path d="M-180.366 93.9119C-156.911 221.506 73.5556 47.2355 73.5556 47.2355C73.5556 47.2355 -203.82 -33.6828 -180.366 93.9119Z" fill="#FFB51F"/>
<path d="M327.476 0.561258C350.931 128.156 73.5548 47.2375 73.5548 47.2375C73.5548 47.2375 304.021 -127.033 327.476 0.561258Z" fill="#FFB51F"/>
<path d="M-12.983 290.477C109.245 333.962 73.555 47.238 73.555 47.238C73.555 47.238 -135.211 246.992 -12.983 290.477Z" fill="#FFB51F"/>
<path d="M160.095 -196.003C282.323 -152.518 73.5571 47.2365 73.5571 47.2365C73.5571 47.2365 37.8669 -239.487 160.095 -196.003Z" fill="#FFB51F"/>
<path d="M240.942 243.802C142.169 327.912 73.5592 47.2394 73.5592 47.2394C73.5592 47.2394 339.716 159.692 240.942 243.802Z" fill="#FFB51F"/>
<path d="M-93.8261 -149.324C-192.6 -65.2141 73.5571 47.2388 73.5571 47.2388C73.5571 47.2388 4.94744 -233.434 -93.8261 -149.324Z" fill="#FFB51F"/>
</svg>
